<svg width="1344" height="516" viewBox="0 0 1344 516" fill="none" xmlns="http://www.w3.org/2000/svg">
<g filter="url(#filter0_b_819_2148)">
<g filter="url(#filter1_b_819_2148)">
<path d="M20 0.5H1324C1334.77 0.5 1343.5 9.23045 1343.5 20V422C1343.5 432.77 1334.77 441.5 1324 441.5H1249.16C1242.62 441.5 1236.46 444.627 1232.6 449.916L1190.59 507.495C1186.92 512.525 1181.06 515.5 1174.84 515.5H20C9.23046 515.5 0.5 506.77 0.5 496V20C0.5 9.23046 9.23045 0.5 20 0.5Z" stroke="url(#paint0_linear_819_2148)"/>
</g>
<mask id="mask0_819_2148" style="mask-type:alpha" maskUnits="userSpaceOnUse" x="0" y="0" width="1344" height="516">
<path d="M20 0.5H1324C1334.77 0.5 1343.5 9.23045 1343.5 20V422C1343.5 432.77 1334.77 441.5 1324 441.5H846.164C839.617 441.5 833.464 444.627 829.605 449.916L787.588 507.495C783.917 512.525 778.063 515.5 771.836 515.5H20C9.23046 515.5 0.5 506.77 0.5 496V20C0.5 9.23046 9.23045 0.5 20 0.5Z" fill="white" fill-opacity="0.03" stroke="url(#paint1_linear_819_2148)"/>
</mask>
<g mask="url(#mask0_819_2148)">
</g>
</g>
<defs>
<filter id="filter0_b_819_2148" x="-34" y="-34" width="1412" height="584" filterUnits="userSpaceOnUse" color-interpolation-filters="sRGB">
<feFlood flood-opacity="0" result="BackgroundImageFix"/>
<feGaussianBlur in="BackgroundImageFix" stdDeviation="17"/>
<feComposite in2="SourceAlpha" operator="in" result="effect1_backgroundBlur_819_2148"/>
<feBlend mode="normal" in="SourceGraphic" in2="effect1_backgroundBlur_819_2148" result="shape"/>
</filter>
<filter id="filter1_b_819_2148" x="-34" y="-34" width="1412" height="584" filterUnits="userSpaceOnUse" color-interpolation-filters="sRGB">
<feFlood flood-opacity="0" result="BackgroundImageFix"/>
<feGaussianBlur in="BackgroundImageFix" stdDeviation="17"/>
<feComposite in2="SourceAlpha" operator="in" result="effect1_backgroundBlur_819_2148"/>
<feBlend mode="normal" in="SourceGraphic" in2="effect1_backgroundBlur_819_2148" result="shape"/>
</filter>
<linearGradient id="paint0_linear_819_2148" x1="3.10104e-05" y1="516" x2="1355.5" y2="32.2362" gradientUnits="userSpaceOnUse">
<stop stop-color="white" stop-opacity="0.15"/>
<stop offset="1" stop-color="white" stop-opacity="0"/>
</linearGradient>
<linearGradient id="paint1_linear_819_2148" x1="3.10104e-05" y1="516" x2="1355.5" y2="32.2362" gradientUnits="userSpaceOnUse">
<stop stop-color="white" stop-opacity="0.15"/>
<stop offset="1" stop-color="white" stop-opacity="0"/>
</linearGradient>
</defs>
</svg>
