<svg width="1344" height="516" viewBox="0 0 1344 516" fill="none" xmlns="http://www.w3.org/2000/svg">
<g filter="url(#filter0_b_817_2102)">
<path d="M1324 0H20C8.95431 0 0 8.95432 0 20V496C0 507.046 8.95432 516 20 516H1174.84C1181.22 516 1187.23 512.949 1190.99 507.789L1233.01 450.211C1236.77 445.051 1242.78 442 1249.16 442H1324C1335.05 442 1344 433.046 1344 422V20C1344 8.95431 1335.05 0 1324 0Z" fill="#D9D9D9"/>
<path d="M20 0.5H1324C1334.77 0.5 1343.5 9.23045 1343.5 20V422C1343.5 432.77 1334.77 441.5 1324 441.5H1249.16C1242.62 441.5 1236.46 444.627 1232.6 449.916L1190.59 507.495C1186.92 512.525 1181.06 515.5 1174.84 515.5H20C9.23046 515.5 0.5 506.77 0.5 496V20C0.5 9.23046 9.23045 0.5 20 0.5Z" stroke="url(#paint0_linear_817_2102)"/>
</g>
<defs>
<filter id="filter0_b_817_2102" x="-34" y="-34" width="1412" height="584" filterUnits="userSpaceOnUse" color-interpolation-filters="sRGB">
<feFlood flood-opacity="0" result="BackgroundImageFix"/>
<feGaussianBlur in="BackgroundImageFix" stdDeviation="17"/>
<feComposite in2="SourceAlpha" operator="in" result="effect1_backgroundBlur_817_2102"/>
<feBlend mode="normal" in="SourceGraphic" in2="effect1_backgroundBlur_817_2102" result="shape"/>
</filter>
<linearGradient id="paint0_linear_817_2102" x1="3.10104e-05" y1="516" x2="1355.5" y2="32.2362" gradientUnits="userSpaceOnUse">
<stop stop-color="white" stop-opacity="0.15"/>
<stop offset="1" stop-color="white" stop-opacity="0"/>
</linearGradient>
</defs>
</svg>
