<svg width="100" height="22" viewBox="0 0 100 22" fill="none" xmlns="http://www.w3.org/2000/svg">
<g clip-path="url(#clip0_601_9801)">
<path d="M15.2041 8.37964H2.39894C2.15272 8.37964 1.95312 8.57924 1.95312 8.82545V13.1665C1.95312 13.4127 2.15272 13.6123 2.39894 13.6123H15.2041C15.4503 13.6123 15.6499 13.4127 15.6499 13.1665V8.82545C15.6499 8.57924 15.4503 8.37964 15.2041 8.37964Z" fill="white"/>
<path d="M18.4663 16.8772C18.7125 16.8772 18.9121 17.0768 18.9121 17.323V21.6641C18.9121 21.9103 18.7125 22.1099 18.4663 22.1099H1.07377C0.676947 22.1099 0.477877 21.6304 0.758006 21.3494L5.08467 17.0083C5.16832 16.9244 5.28194 16.8772 5.40043 16.8772H18.4663Z" fill="white"/>
<path d="M18.9121 4.66833C18.9121 4.91455 18.7125 5.11414 18.4663 5.11414H5.40025C5.28186 5.11414 5.16834 5.06706 5.08471 4.98327L0.759315 0.649672C0.478877 0.368702 0.677878 -0.111084 1.07485 -0.111084H18.4663C18.7125 -0.111084 18.9121 0.0885145 18.9121 0.334732V4.66833Z" fill="white"/>
<path d="M36.3076 -0.111084C36.7046 -0.111084 36.9036 0.368758 36.6231 0.649712L26.6067 10.6826C26.4329 10.8566 26.4329 11.1384 26.6066 11.3125L36.6235 21.3504C36.9039 21.6313 36.7049 22.1111 36.3079 22.1111H30.1864C30.068 22.1111 29.9545 22.064 29.8709 21.9802L19.2255 11.3125C19.0518 11.1384 19.0518 10.8566 19.2255 10.6826L29.8709 0.019751C29.9545 -0.064014 30.068 -0.111084 30.1864 -0.111084H36.3076Z" fill="white"/>
<path d="M50.6445 4.8C50.5971 4.68852 50.5971 4.56253 50.6445 4.45103L52.4689 0.16029C52.5388 -0.00425667 52.7003 -0.111084 52.8791 -0.111084H57.5831C57.9028 -0.111084 58.1186 0.215385 57.9933 0.509455L53.8137 10.3208C53.6597 10.6823 53.1472 10.6822 52.9933 10.3206L50.6445 4.8Z" fill="white"/>
<path d="M51.557 15.6246C51.6046 15.513 51.6046 15.3869 51.5571 15.2753L45.125 0.160166C45.055 -0.00431483 44.8935 -0.111084 44.7148 -0.111084H40.0104C39.6908 -0.111084 39.4751 0.215258 39.6002 0.50931L48.3835 21.1477C48.5374 21.5093 49.0498 21.5094 49.2039 21.1479L51.557 15.6246Z" fill="white"/>
<path d="M75.4222 8.37964H62.6121C62.3659 8.37964 62.1663 8.57924 62.1663 8.82545V13.1665C62.1663 13.4127 62.3659 13.6123 62.6121 13.6123H75.4222C75.6684 13.6123 75.868 13.4127 75.868 13.1665V8.82545C75.868 8.57924 75.6684 8.37964 75.4222 8.37964Z" fill="white"/>
<path d="M78.6852 16.8772C78.9314 16.8772 79.131 17.0768 79.131 17.323V21.6641C79.131 21.9103 78.9314 22.1099 78.6852 22.1099H61.2856C60.8887 22.1099 60.6896 21.6303 60.9699 21.3493L65.2986 17.0082C65.3822 16.9243 65.4958 16.8772 65.6143 16.8772H78.6852Z" fill="white"/>
<path d="M88.7 17.1929C88.7476 17.3046 88.7476 17.4308 88.7 17.5425L86.8686 21.8383C86.7985 22.0027 86.6371 22.1093 86.4585 22.1093H81.7612C81.4417 22.1093 81.2259 21.7831 81.351 21.489L85.5267 11.6704C85.6805 11.3087 86.193 11.3085 86.3471 11.6701L88.7 17.1929Z" fill="white"/>
<path d="M87.7832 6.37555C87.7358 6.48707 87.7358 6.61309 87.7832 6.7246L94.2154 21.8398C94.2854 22.0043 94.4469 22.1111 94.6256 22.1111H99.3226C99.6422 22.1111 99.8579 21.7848 99.7328 21.4907L90.9523 0.853295C90.7984 0.491564 90.2856 0.491601 90.1318 0.853355L87.7832 6.37555Z" fill="white"/>
<path d="M78.6852 5.11414C78.9314 5.11414 79.131 4.91455 79.131 4.66833V0.334731C79.131 0.0885138 78.9314 -0.111084 78.6852 -0.111084H61.2866C60.8896 -0.111084 60.6906 0.368808 60.9712 0.649747L65.2986 4.98335C65.3823 5.06709 65.4957 5.11414 65.6141 5.11414H78.6852Z" fill="white"/>
</g>
<defs>
<clipPath id="clip0_601_9801">
<rect width="100" height="22" fill="white"/>
</clipPath>
</defs>
</svg>
