<svg width="312" height="92" viewBox="0 0 312 92" fill="none" xmlns="http://www.w3.org/2000/svg">
<g filter="url(#filter0_b_677_11539)">
<path fill-rule="evenodd" clip-rule="evenodd" d="M312 20C312 8.95431 303.046 0 292 0H20C8.95431 0 0 8.95431 0 20V72C0 83.0457 8.9543 92 20 92H256.684C261.901 92 266.911 89.9618 270.646 86.32L305.962 51.887C309.823 48.1228 312 42.9592 312 37.567V20Z" fill="white" fill-opacity="0.03"/>
<path d="M292 0.25C302.908 0.25 311.75 9.09238 311.75 20V37.567C311.75 42.8918 309.6 47.9909 305.787 51.708L270.472 86.141C266.783 89.7372 261.836 91.75 256.684 91.75H20C9.09237 91.75 0.25 82.9076 0.25 72V20C0.25 9.09238 9.09238 0.25 20 0.25H292Z" stroke="url(#paint0_linear_677_11539)" stroke-width="0.5"/>
</g>
<defs>
<filter id="filter0_b_677_11539" x="-34" y="-34" width="380" height="160" filterUnits="userSpaceOnUse" color-interpolation-filters="sRGB">
<feFlood flood-opacity="0" result="BackgroundImageFix"/>
<feGaussianBlur in="BackgroundImageFix" stdDeviation="17"/>
<feComposite in2="SourceAlpha" operator="in" result="effect1_backgroundBlur_677_11539"/>
<feBlend mode="normal" in="SourceGraphic" in2="effect1_backgroundBlur_677_11539" result="shape"/>
</filter>
<linearGradient id="paint0_linear_677_11539" x1="7.19885e-06" y1="92" x2="291.754" y2="-43.5708" gradientUnits="userSpaceOnUse">
<stop stop-color="white" stop-opacity="0.15"/>
<stop offset="1" stop-color="white" stop-opacity="0"/>
</linearGradient>
</defs>
</svg>
