<svg width="461" height="192" viewBox="0 0 461 192" fill="none" xmlns="http://www.w3.org/2000/svg">
<path d="M25.62 81L-0.00999994 3.99999H12.31L32.77 68.24H33.76L54.11 3.99999H66.32L40.8 81H25.62ZM77.4145 81V23.8H88.3045V81H77.4145ZM82.8045 13.79C80.8979 13.79 79.2845 13.2033 77.9645 12.03C76.7179 10.8567 76.0945 9.31667 76.0945 7.41C76.0945 5.57667 76.7179 4.03667 77.9645 2.79C79.2845 1.54333 80.8979 0.919995 82.8045 0.919995C84.7845 0.919995 86.3979 1.54333 87.6445 2.79C88.9645 4.03667 89.6245 5.57667 89.6245 7.41C89.6245 9.31667 88.9645 10.8567 87.6445 12.03C86.3979 13.2033 84.7845 13.79 82.8045 13.79ZM126.438 81.99C121.672 81.99 117.015 81.2933 112.468 79.9C107.995 78.4333 104.072 76.3067 100.698 73.52L106.528 65.49C107.922 66.6633 109.425 67.69 111.038 68.57C112.725 69.3767 114.412 70.0733 116.098 70.66C117.858 71.2467 119.618 71.6867 121.378 71.98C123.138 72.2733 124.898 72.42 126.658 72.42C128.492 72.42 130.142 72.2733 131.608 71.98C133.075 71.6133 134.285 71.1367 135.238 70.55C136.265 69.89 137.035 69.12 137.548 68.24C138.062 67.2867 138.318 66.2233 138.318 65.05C138.318 63.5833 137.878 62.3733 136.998 61.42C136.118 60.4667 134.908 59.66 133.368 59C131.902 58.2667 130.142 57.6433 128.088 57.13C126.108 56.6167 123.908 56.03 121.488 55.37C119.215 54.7833 116.978 54.16 114.778 53.5C112.578 52.7667 110.598 51.8133 108.838 50.64C107.152 49.4667 105.758 48 104.658 46.24C103.558 44.48 103.008 42.28 103.008 39.64C103.008 37.0733 103.522 34.7633 104.548 32.71C105.575 30.5833 107.005 28.7867 108.838 27.32C110.672 25.8533 112.872 24.7533 115.438 24.02C118.005 23.2133 120.902 22.81 124.128 22.81C128.088 22.81 132.048 23.4333 136.008 24.68C140.042 25.9267 143.562 27.6867 146.568 29.96L141.288 38.1C138.868 36.34 136.045 34.9467 132.818 33.92C129.592 32.8933 126.475 32.38 123.468 32.38C121.855 32.38 120.388 32.5633 119.068 32.93C117.822 33.2233 116.795 33.6633 115.988 34.25C115.182 34.7633 114.558 35.4233 114.118 36.23C113.752 37.0367 113.568 37.9167 113.568 38.87C113.568 39.8967 113.825 40.8133 114.338 41.62C114.852 42.3533 115.658 43.05 116.758 43.71C117.932 44.37 119.398 44.9933 121.158 45.58C122.992 46.0933 125.192 46.6433 127.758 47.23C130.325 47.8167 132.855 48.5133 135.348 49.32C137.842 50.0533 140.115 51.0433 142.168 52.29C144.222 53.5367 145.872 55.15 147.118 57.13C148.438 59.0367 149.098 61.4933 149.098 64.5C149.098 67.14 148.548 69.56 147.448 71.76C146.422 73.96 144.882 75.83 142.828 77.37C140.848 78.8367 138.465 79.9733 135.678 80.78C132.892 81.5867 129.812 81.99 126.438 81.99ZM181.208 81.99C174.461 81.99 169.365 80.1567 165.918 76.49C162.545 72.75 160.858 67.3967 160.858 60.43V23.8H171.748V58.34C171.748 62.74 172.701 66.1133 174.608 68.46C176.588 70.8067 179.741 71.98 184.068 71.98H184.398C186.891 71.98 189.165 71.6133 191.218 70.88C193.271 70.0733 195.031 68.9367 196.498 67.47C197.965 66.0033 199.101 64.2433 199.908 62.19C200.788 60.1367 201.228 57.8267 201.228 55.26V23.8H212.118V81H203.538C203.098 79.9 202.731 78.58 202.438 77.04C202.145 75.4267 201.925 73.9967 201.778 72.75C199.358 75.61 196.388 77.8833 192.868 79.57C189.421 81.1833 185.645 81.99 181.538 81.99H181.208ZM245.898 81.99C242.965 81.99 240.252 81.5867 237.758 80.78C235.338 79.9 233.248 78.7267 231.488 77.26C229.728 75.72 228.335 73.9233 227.308 71.87C226.355 69.7433 225.878 67.3967 225.878 64.83V64.28C225.878 58.12 228.775 53.5 234.568 50.42C240.362 47.2667 249.052 45.69 260.638 45.69H265.588V42.5C265.588 39.3467 264.452 36.89 262.178 35.13C259.905 33.37 256.715 32.49 252.608 32.49H252.388C249.308 32.49 246.045 33.0033 242.598 34.03C239.225 35.0567 236.182 36.5233 233.468 38.43L228.738 30.18C232.332 27.8333 236.145 26 240.178 24.68C244.285 23.36 248.538 22.7 252.938 22.7H253.378C256.532 22.7 259.502 23.14 262.288 24.02C265.075 24.8267 267.458 26.0367 269.438 27.65C271.492 29.2633 273.105 31.3167 274.278 33.81C275.525 36.23 276.148 39.0533 276.148 42.28V70.44C276.148 72.2 276.332 74.0333 276.698 75.94C277.065 77.7733 277.542 79.46 278.128 81H267.348C266.982 80.1933 266.688 79.1667 266.468 77.92C266.248 76.6 266.065 75.3167 265.918 74.07C263.132 76.6367 260.052 78.6167 256.678 80.01C253.305 81.33 249.712 81.99 245.898 81.99ZM247.328 72.42C250.995 72.42 254.405 71.6867 257.558 70.22C260.712 68.7533 263.388 66.8467 265.588 64.5V53.94H261.958C253.232 53.94 246.815 54.7833 242.708 56.47C238.675 58.0833 236.658 60.6133 236.658 64.06V64.39C236.658 65.5633 236.915 66.6633 237.428 67.69C237.942 68.6433 238.675 69.4867 239.628 70.22C240.582 70.88 241.682 71.43 242.928 71.87C244.248 72.2367 245.715 72.42 247.328 72.42ZM294.084 81V1.8H304.974V81H294.084ZM129.433 191V114H173.763V124.56H141.093V148.54H171.563V158.77H141.093V191H129.433ZM207.097 191.99C200.35 191.99 195.253 190.157 191.807 186.49C188.433 182.75 186.747 177.397 186.747 170.43V133.8H197.637V168.34C197.637 172.74 198.59 176.113 200.497 178.46C202.477 180.807 205.63 181.98 209.957 181.98H210.287C212.78 181.98 215.053 181.613 217.107 180.88C219.16 180.073 220.92 178.937 222.387 177.47C223.853 176.003 224.99 174.243 225.797 172.19C226.677 170.137 227.117 167.827 227.117 165.26V133.8H238.007V191H229.427C228.987 189.9 228.62 188.58 228.327 187.04C228.033 185.427 227.813 183.997 227.667 182.75C225.247 185.61 222.277 187.883 218.757 189.57C215.31 191.183 211.533 191.99 207.427 191.99H207.097ZM274.317 191.44C271.75 191.44 269.404 191.147 267.277 190.56C265.224 189.973 263.427 189.02 261.887 187.7C260.42 186.38 259.247 184.657 258.367 182.53C257.56 180.403 257.157 177.873 257.157 174.94V143.15H249.567V135.56C250.667 135.193 251.877 134.863 253.197 134.57C254.59 134.277 255.91 134.057 257.157 133.91V120.6L268.047 119.17V133.8H286.637V143.15H267.937V172.96C267.937 176.26 268.707 178.533 270.247 179.78C271.787 181.027 273.987 181.65 276.847 181.65C277.58 181.65 278.424 181.65 279.377 181.65C280.33 181.577 281.284 181.503 282.237 181.43C283.264 181.283 284.217 181.137 285.097 180.99C286.05 180.843 286.82 180.66 287.407 180.44V189.46C285.94 190.12 283.887 190.633 281.247 191C278.68 191.293 276.37 191.44 274.317 191.44ZM318.816 191.99C312.069 191.99 306.972 190.157 303.526 186.49C300.152 182.75 298.466 177.397 298.466 170.43V133.8H309.356V168.34C309.356 172.74 310.309 176.113 312.216 178.46C314.196 180.807 317.349 181.98 321.676 181.98H322.006C324.499 181.98 326.772 181.613 328.826 180.88C330.879 180.073 332.639 178.937 334.106 177.47C335.572 176.003 336.709 174.243 337.516 172.19C338.396 170.137 338.836 167.827 338.836 165.26V133.8H349.726V191H341.146C340.706 189.9 340.339 188.58 340.046 187.04C339.752 185.427 339.532 183.997 339.386 182.75C336.966 185.61 333.996 187.883 330.476 189.57C327.029 191.183 323.252 191.99 319.146 191.99H318.816ZM367.776 191V133.8H376.466C376.833 134.827 377.163 136.073 377.456 137.54C377.749 139.007 377.969 140.4 378.116 141.72C380.316 139.3 382.993 137.393 386.146 136C389.299 134.533 392.819 133.8 396.706 133.8H397.696V144.69C397.256 144.47 396.779 144.323 396.266 144.25C395.826 144.177 395.313 144.14 394.726 144.14C392.233 144.14 389.959 144.507 387.906 145.24C385.926 145.973 384.239 147.073 382.846 148.54C381.526 149.933 380.499 151.657 379.766 153.71C379.033 155.69 378.666 157.927 378.666 160.42V191H367.776ZM433.681 191.88C429.428 191.88 425.541 191.183 422.021 189.79C418.501 188.397 415.458 186.453 412.891 183.96C410.398 181.393 408.418 178.387 406.951 174.94C405.558 171.493 404.861 167.717 404.861 163.61V162.18C404.861 158 405.558 154.113 406.951 150.52C408.418 146.927 410.435 143.847 413.001 141.28C415.568 138.64 418.611 136.623 422.131 135.23C425.651 133.763 429.501 133.03 433.681 133.03H434.011C437.898 133.03 441.455 133.69 444.681 135.01C447.981 136.257 450.805 138.053 453.151 140.4C455.571 142.747 457.441 145.57 458.761 148.87C460.081 152.097 460.741 155.653 460.741 159.54V166.36H415.971C416.265 168.707 416.888 170.833 417.841 172.74C418.868 174.647 420.188 176.297 421.801 177.69C423.415 179.01 425.285 180.073 427.411 180.88C429.611 181.687 431.958 182.09 434.451 182.09H434.671C438.485 182.09 441.895 181.32 444.901 179.78C447.981 178.24 450.328 176.333 451.941 174.06L458.981 180.33C457.661 182.09 456.085 183.703 454.251 185.17C452.418 186.637 450.401 187.847 448.201 188.8C446.001 189.753 443.728 190.487 441.381 191C439.035 191.587 436.615 191.88 434.121 191.88H433.681ZM416.301 157.89H450.181C450.035 155.543 449.521 153.453 448.641 151.62C447.761 149.713 446.588 148.1 445.121 146.78C443.655 145.387 441.931 144.323 439.951 143.59C437.971 142.783 435.808 142.38 433.461 142.38C431.188 142.38 429.061 142.747 427.081 143.48C425.175 144.213 423.488 145.277 422.021 146.67C420.555 147.99 419.308 149.603 418.281 151.51C417.328 153.417 416.668 155.543 416.301 157.89Z" fill="url(#paint0_linear_670_2895)"/>
<defs>
<linearGradient id="paint0_linear_670_2895" x1="-141" y1="-49.5" x2="720.151" y2="55.4492" gradientUnits="userSpaceOnUse">
<stop stop-color="#FF087E"/>
<stop offset="1" stop-color="#0075FF"/>
</linearGradient>
</defs>
</svg>
