<svg width="24" height="24" viewBox="0 0 24 24" fill="none" xmlns="http://www.w3.org/2000/svg">
<path fill-rule="evenodd" clip-rule="evenodd" d="M4.49024 7.84179C6.54091 5.45179 9.03715 3.9978 12 3.9978C14.9629 3.9978 17.4591 5.45179 19.5098 7.84179C20.2117 8.65879 20.8255 9.5318 21.3241 10.4038C21.6265 10.9318 21.8108 11.3398 21.9189 11.5918C22.027 11.8428 22.027 12.1528 21.9189 12.4038C21.8108 12.6558 21.6265 13.0638 21.3241 13.5918C20.8255 14.4638 20.2117 15.3368 19.5098 16.1538C17.4591 18.5438 14.9629 19.9978 12 19.9978C9.03715 19.9978 6.54091 18.5438 4.49024 16.1538C3.78833 15.3368 3.17454 14.4638 2.67589 13.5918C2.37349 13.0638 2.18925 12.6558 2.08111 12.4038C1.97296 12.1528 1.97296 11.8428 2.08111 11.5918C2.18925 11.3398 2.37349 10.9318 2.67589 10.4038C3.17454 9.5318 3.78833 8.65879 4.49024 7.84179ZM11.9988 17C14.7638 17 17.0053 14.7614 17.0053 12C17.0053 9.23858 14.7638 7 11.9988 7C9.23382 7 6.99233 9.23858 6.99233 12C6.99233 14.7614 9.23382 17 11.9988 17Z" fill="white"/>
<circle cx="12" cy="12" r="3" fill="white"/>
</svg>
