<svg width="20" height="20" viewBox="0 0 20 20" fill="none" xmlns="http://www.w3.org/2000/svg">
<path fill-rule="evenodd" clip-rule="evenodd" d="M8.34916 9.16675C8.41288 7.50238 8.66437 6.03556 9.02279 4.9603C9.23282 4.33022 9.46454 3.88043 9.68139 3.60528C9.78788 3.47015 9.87451 3.39801 9.93213 3.36264C9.95961 3.34577 9.97796 3.33879 9.98724 3.33596C9.99565 3.3334 9.99919 3.33341 9.99993 3.33341L9.99999 3.33341L10 3.33341C10.0008 3.33341 10.0043 3.3334 10.0127 3.33596C10.022 3.33879 10.0404 3.34577 10.0678 3.36264C10.1255 3.39801 10.2121 3.47015 10.3186 3.60528C10.5354 3.88043 10.7672 4.33022 10.9772 4.9603C11.3356 6.03556 11.5871 7.50238 11.6508 9.16675H8.34916ZM6.68137 9.16675H2.49999C2.03975 9.16675 1.66666 9.53984 1.66666 10.0001C1.66666 10.4603 2.03975 10.8334 2.49999 10.8334H6.68137C6.74571 12.6448 7.01813 14.2963 7.44165 15.5669C7.68403 16.294 7.99102 16.9426 8.37237 17.4265C8.74631 17.901 9.29003 18.3334 9.99999 18.3334C10.7099 18.3334 11.2537 17.901 11.6276 17.4265C12.009 16.9426 12.3159 16.294 12.5583 15.5669C12.9818 14.2963 13.2543 12.6448 13.3186 10.8334H17.5C17.9602 10.8334 18.3333 10.4603 18.3333 10.0001C18.3333 9.53984 17.9602 9.16675 17.5 9.16675H13.3186C13.2543 7.35533 12.9818 5.70381 12.5583 4.43326C12.3159 3.70611 12.009 3.05755 11.6276 2.57366C11.2537 2.09916 10.7099 1.66675 9.99999 1.66675C9.29003 1.66675 8.74631 2.09916 8.37237 2.57366C7.99102 3.05755 7.68403 3.70611 7.44165 4.43326C7.01813 5.70381 6.74571 7.35533 6.68137 9.16675ZM11.6508 10.8334C11.5871 12.4978 11.3356 13.9646 10.9772 15.0399C10.7672 15.6699 10.5354 16.1197 10.3186 16.3949C10.2121 16.53 10.1255 16.6021 10.0678 16.6375C10.0404 16.6544 10.022 16.6614 10.0127 16.6642C10.0043 16.6668 10.0008 16.6667 10 16.6667H9.99999H9.99993C9.99919 16.6667 9.99565 16.6668 9.98724 16.6642C9.97796 16.6614 9.95961 16.6544 9.93213 16.6375C9.87451 16.6021 9.78788 16.53 9.68139 16.3949C9.46454 16.1197 9.23282 15.6699 9.02279 15.0399C8.66437 13.9646 8.41288 12.4978 8.34916 10.8334H11.6508Z" fill="white"/>
<path fill-rule="evenodd" clip-rule="evenodd" d="M9.99999 3.33341C6.31809 3.33341 3.33332 6.31818 3.33332 10.0001C3.33332 13.682 6.31809 16.6667 9.99999 16.6667C13.6819 16.6667 16.6667 13.682 16.6667 10.0001C16.6667 6.31818 13.6819 3.33341 9.99999 3.33341ZM1.66666 10.0001C1.66666 5.39771 5.39762 1.66675 9.99999 1.66675C14.6024 1.66675 18.3333 5.39771 18.3333 10.0001C18.3333 14.6025 14.6024 18.3334 9.99999 18.3334C5.39762 18.3334 1.66666 14.6025 1.66666 10.0001Z" fill="white"/>
</svg>
