<svg width="24" height="24" viewBox="0 0 24 24" fill="none" xmlns="http://www.w3.org/2000/svg">
<path fill-rule="evenodd" clip-rule="evenodd" d="M7.49902 3C4.46142 3 1.99902 5.46201 1.99902 8.50001C1.99902 11.684 3.81252 14.688 6.81152 17.438C7.83512 18.376 8.93723 19.199 10.0302 19.938C10.4133 20.196 10.7716 20.43 11.0928 20.625C11.2886 20.744 11.4177 20.83 11.499 20.875C11.801 21.043 12.197 21.043 12.499 20.875C12.5803 20.83 12.7094 20.744 12.9052 20.625C13.2264 20.43 13.5847 20.196 13.9678 19.938C15.0608 19.199 16.1629 18.376 17.1865 17.438C20.1855 14.688 21.999 11.684 21.999 8.50001C21.999 5.46201 19.5366 3 16.499 3C14.7738 3 13.0894 3.94001 12.0302 5.31202C10.9974 3.91601 9.31893 3 7.49902 3ZM10.499 6.56202C9.84653 5.61602 8.71292 5 7.49902 5C5.56602 5 3.99902 6.56701 3.99902 8.50001C3.99902 11.003 5.56052 13.53 8.18652 15.938C9.13173 16.804 10.1389 17.594 11.1552 18.281C11.4625 18.489 11.7366 18.651 11.999 18.812C12.2614 18.651 12.5355 18.489 12.8428 18.281C13.8591 17.594 14.8663 16.804 15.8115 15.938C18.4375 13.53 19.999 11.003 19.999 8.50001C19.999 6.56701 18.432 5 16.499 5C15.3722 5 14.1801 5.642 13.499 6.594C13.4306 6.689 12.9103 7.42102 12.8115 7.56202C12.4053 8.14202 11.5421 8.12402 11.1552 7.53102C11.0623 7.38902 10.5624 6.65402 10.499 6.56202Z" fill="white"/>
</svg>
