<svg width="28" height="28" viewBox="0 0 28 28" fill="none" xmlns="http://www.w3.org/2000/svg">
<path fill-rule="evenodd" clip-rule="evenodd" d="M14 2.33205C14.4825 2.33205 14.9708 2.60089 15.1293 3.17039L15.5291 4.66464L15.5294 4.66592H12.4706L12.4709 4.66464L12.8707 3.17039C13.0292 2.60089 13.5175 2.33205 14 2.33205ZM8.24479 19.8277H10.6852L9.30216 24.8194C9.12968 25.4398 8.46539 25.7944 7.84538 25.6218C7.22537 25.4492 6.8711 24.7844 7.04358 24.1639L8.24479 19.8277ZM12.8346 19.8277H15.1654V23.3253C15.1654 23.9691 14.6433 24.4916 14 24.4916C13.3567 24.4916 12.8346 23.9691 12.8346 23.3253V19.8277ZM17.3148 19.8277H19.7552L20.9564 24.1639C21.1289 24.7844 20.7746 25.4492 20.1546 25.6218C19.5346 25.7944 18.8703 25.4398 18.6978 24.8194L17.3148 19.8277Z" fill="white" fill-opacity="0.5"/>
<path fill-rule="evenodd" clip-rule="evenodd" d="M23.3333 8.16666C23.3333 6.23367 21.7662 4.66666 19.8333 4.66666H8.16658C6.23359 4.66666 4.66658 6.23367 4.66658 8.16666V16.3333C4.66658 18.2663 6.23359 19.8333 8.16658 19.8333H19.8333C21.7662 19.8333 23.3333 18.2663 23.3333 16.3333V8.16666Z" fill="white"/>
</svg>
