<svg width="28" height="28" viewBox="0 0 28 28" fill="none" xmlns="http://www.w3.org/2000/svg">
<path d="M18.0833 3.5C15.1838 3.5 12.8333 5.85083 12.8333 8.75C12.8333 11.6492 15.1838 14 18.0833 14C20.9829 14 23.3333 11.6492 23.3333 8.75C23.3333 5.85083 20.9829 3.5 18.0833 3.5ZM14.0729 15.568C11.9331 16.4512 10.5 18.6153 10.5 21V23.3333C10.5 23.9773 11.0223 24.5 11.6667 24.5H24.5C25.1444 24.5 25.6667 23.9773 25.6667 23.3333V21C25.6667 18.6713 24.2256 16.5597 22.0938 15.6403C21.7937 15.5108 21.444 15.5073 21.1458 15.6403C20.1136 16.1035 19.1079 16.3333 18.0833 16.3333C17.0623 16.3333 16.0531 16.0907 14.9844 15.6042C14.6905 15.47 14.3714 15.4443 14.0729 15.568Z" fill="white"/>
<path d="M9.33325 4.66666C6.75597 4.66666 4.66659 6.75616 4.66659 9.33333C4.66659 11.9105 6.75597 14 9.33325 14C10.3009 14 11.1842 13.734 11.9615 13.1904C9.96792 10.227 10.2505 7.38966 11.337 5.10416C10.7165 4.81016 10.0349 4.66666 9.33325 4.66666ZM5.90617 15.568C3.76639 16.4512 2.33325 18.6153 2.33325 21V23.3333C2.33325 23.9773 2.85557 24.5 3.49992 24.5L8.34485 24.5023C8.07185 23.6157 8.15212 22.1783 8.17009 21.0152C8.208 18.5453 9.22942 16.7836 9.62947 16.3193C8.89424 16.3135 8.01189 16.135 7.3645 15.8597C7.20817 15.7932 7.1174 15.7407 6.81769 15.6042C6.5238 15.47 6.2046 15.4443 5.90617 15.568Z" fill="white" fill-opacity="0.5"/>
</svg>
