<svg width="28" height="28" viewBox="0 0 28 28" fill="none" xmlns="http://www.w3.org/2000/svg">
<path d="M13.9998 2.8483C14.6653 2.84807 15.3448 3.26248 15.7472 4.08731L18.2228 9.18879L23.8654 9.99041C25.6801 10.2431 26.268 12.0251 24.9576 13.3061L20.8803 17.2786L21.8268 22.8541C22.1384 24.6589 20.6429 25.7498 19.0236 24.8946C18.3979 24.5633 15.1809 22.8949 13.9998 22.2707V2.8483Z" fill="white" fill-opacity="0.5"/>
<path d="M14.0002 2.8483C13.3347 2.84807 12.6552 3.26248 12.2528 4.08731L9.77725 9.18879L4.13457 9.99041C2.31992 10.2431 1.73202 12.0251 3.04245 13.3061L7.11967 17.2786L6.17324 22.8541C5.86157 24.6589 7.35709 25.7498 8.9764 24.8946C9.60207 24.5633 12.8191 22.8949 14.0002 22.2707V2.8483Z" fill="white"/>
</svg>
