<svg width="28" height="28" viewBox="0 0 28 28" fill="none" xmlns="http://www.w3.org/2000/svg">
<path d="M6.99805 8.16669C5.065 8.16669 3.49805 9.73352 3.49805 11.6667V21C3.49805 22.9332 5.065 24.5 6.99805 24.5H16.3314C18.2644 24.5 19.8314 22.9332 19.8314 21C19.8314 19.6155 19.8314 14.9691 19.8314 11.6662C19.8314 9.73321 18.2662 8.16666 16.3332 8.16666C12.6547 8.16667 7.34816 8.16669 6.99805 8.16669ZM14.5814 11.6667C15.5478 11.6667 16.3314 12.4507 16.3314 13.4167C16.3314 14.3827 15.5478 15.1667 14.5814 15.1667C13.6149 15.1667 12.8314 14.3827 12.8314 13.4167C12.8314 12.4507 13.6149 11.6667 14.5814 11.6667ZM8.74805 17.5C9.95695 17.5198 11.4296 19.7995 11.8105 20.4167C12.2723 21.1645 13.3502 21.1984 13.8158 20.4529C13.8468 20.4039 15.0067 18.6737 15.6751 18.6667C16.3436 18.6597 17.5052 19.8567 17.498 21C17.4941 21.6207 16.9757 22.1667 16.3314 22.1667H6.99805C6.3537 22.1667 5.81785 21.6125 5.83138 21C5.85681 19.852 7.53915 17.4802 8.74805 17.5Z" fill="white"/>
<path fill-rule="evenodd" clip-rule="evenodd" d="M11.6664 5.83333C11.0221 5.83333 10.4998 6.3556 10.4998 7V8.16667H8.1665V7C8.1665 5.06708 9.73332 3.5 11.6664 3.5H20.9997C22.9327 3.5 24.4997 5.067 24.4997 7V16.3333C24.4997 18.2663 22.9327 19.8333 20.9997 19.8333H19.8332V17.5H20.9997C21.6441 17.5 22.1664 16.9777 22.1664 16.3333V7C22.1664 6.35567 21.6441 5.83333 20.9997 5.83333H11.6664Z" fill="white" fill-opacity="0.5"/>
</svg>
