<svg width="28" height="28" viewBox="0 0 28 28" fill="none" xmlns="http://www.w3.org/2000/svg">
<path fill-rule="evenodd" clip-rule="evenodd" d="M11.0831 18.0662C9.2607 16.2437 9.2607 13.2889 11.0831 11.4665L17.6828 4.86683C19.5053 3.04439 22.46 3.04439 24.2825 4.86683C26.1049 6.68928 26.1049 9.64405 24.2825 11.4665L17.6828 18.0662C15.8604 19.8886 12.9056 19.8886 11.0831 18.0662ZM12.7331 13.1164C11.8218 14.0276 11.8218 15.505 12.7331 16.4162C13.6443 17.3275 15.1217 17.3275 16.0329 16.4162L12.7331 13.1164Z" fill="white"/>
<path fill-rule="evenodd" clip-rule="evenodd" d="M9.73351 15.1836C9.82396 16.2413 10.2739 17.274 11.0833 18.0834C11.8927 18.8928 12.9255 19.3428 13.9833 19.4332C13.9945 19.5651 14.0002 19.6985 14.0002 19.8333C14.0002 22.4107 11.9108 24.5 9.33351 24.5C7.45493 24.5 5.88753 24.1871 4.78384 23.8718C4.23132 23.7139 3.79257 23.5547 3.48616 23.4322C3.31582 23.3641 3.14579 23.2931 2.98131 23.2116L2.97976 23.2108C2.97976 23.2108 3.13232 23.2831 2.97843 23.2102C2.643 23.0425 2.40865 22.7237 2.34857 22.3536C2.2885 21.9834 2.41004 21.6069 2.67522 21.3417C3.15679 20.8601 3.53557 20.301 3.89608 19.683C4.01912 19.4721 4.15803 19.2199 4.3031 18.9565C4.52939 18.5457 4.77066 18.1076 4.99001 17.7567C5.38991 17.1168 5.89205 16.4523 6.61126 15.9563C7.35396 15.444 8.24649 15.1667 9.33351 15.1667C9.46825 15.1667 9.60167 15.1724 9.73351 15.1836Z" fill="white" fill-opacity="0.5"/>
</svg>
