<svg width="24" height="24" viewBox="0 0 24 24" fill="none" xmlns="http://www.w3.org/2000/svg">
<path fill-rule="evenodd" clip-rule="evenodd" d="M7.49902 4C4.46142 4 1.99902 6.46201 1.99902 9.50001C1.99902 12.684 3.81252 15.688 6.81152 18.438C7.83512 19.376 8.93723 20.199 10.0302 20.938C10.4133 21.196 10.7716 21.43 11.0928 21.625C11.2886 21.744 11.4177 21.83 11.499 21.875C11.801 22.043 12.197 22.043 12.499 21.875C12.5803 21.83 12.7094 21.744 12.9052 21.625C13.2264 21.43 13.5847 21.196 13.9678 20.938C15.0608 20.199 16.1629 19.376 17.1865 18.438C20.1855 15.688 21.999 12.684 21.999 9.50001C21.999 6.46201 19.5366 4 16.499 4C14.7738 4 13.0894 4.94001 12.0302 6.31202C10.9974 4.91601 9.31893 4 7.49902 4Z" fill="#FF087E"/>
</svg>
