<svg width="20" height="20" viewBox="0 0 20 20" fill="none" xmlns="http://www.w3.org/2000/svg">
<path fill-rule="evenodd" clip-rule="evenodd" d="M19.9397 14.1228C19.8913 15.1873 19.722 15.9141 19.4749 16.5503C18.9554 17.8935 17.8935 18.9554 16.5503 19.4749C15.9144 19.722 15.1873 19.8911 14.1231 19.9397C13.0567 19.9883 12.716 20 10.0003 20C7.28423 20 6.94382 19.9883 5.87718 19.9397C4.81293 19.8911 4.08588 19.722 3.44999 19.4749C2.78247 19.2238 2.1782 18.8303 1.67862 18.3214C1.17001 17.8221 0.776467 17.2175 0.525351 16.5503C0.278221 15.9144 0.10895 15.1873 0.0605867 14.1231C0.0114264 13.0564 0 12.7158 0 10C0 7.28423 0.0114264 6.94356 0.060321 5.87718C0.108684 4.81266 0.277689 4.08588 0.524819 3.44972C0.775935 2.78247 1.16975 2.17793 1.67862 1.67862C2.17793 1.16975 2.78247 0.776201 3.44972 0.525085C4.08588 0.277955 4.81266 0.10895 5.87718 0.060321C6.94356 0.0116922 7.28423 0 10 0C12.7158 0 13.0564 0.0116922 14.1228 0.0605867C15.1873 0.10895 15.9141 0.277955 16.5503 0.524819C17.2175 0.775935 17.8221 1.16975 18.3216 1.67862C18.8303 2.1782 19.2241 2.78247 19.4749 3.44972C19.7223 4.08588 19.8913 4.81266 19.9399 5.87718C19.9886 6.94356 20 7.28423 20 10C20 12.7158 19.9886 13.0564 19.9397 14.1228ZM17.7955 4.10209C17.6353 3.66789 17.3796 3.27487 17.0475 2.95227C16.7249 2.62011 16.3321 2.36448 15.8976 2.20424C15.5453 2.06739 15.0159 1.9045 14.041 1.86012C12.9863 1.81202 12.6701 1.80166 10 1.80166C7.32967 1.80166 7.01345 1.81176 5.95902 1.85985C4.98406 1.9045 4.45445 2.06739 4.10236 2.20424C3.66789 2.36448 3.27487 2.62011 2.95254 2.95227C2.62038 3.27487 2.36474 3.66762 2.20424 4.10209C2.06739 4.45445 1.9045 4.98406 1.86012 5.95902C1.81202 7.01345 1.80166 7.32967 1.80166 10C1.80166 12.6701 1.81202 12.9863 1.86012 14.041C1.9045 15.0159 2.06739 15.5453 2.20424 15.8976C2.36474 16.3321 2.62011 16.7249 2.95227 17.0475C3.27487 17.3796 3.66762 17.6353 4.10209 17.7955C4.45445 17.9326 4.98406 18.0955 5.95902 18.1399C7.01345 18.188 7.3294 18.1981 9.99974 18.1981C12.6703 18.1981 12.9866 18.188 14.0407 18.1399C15.0157 18.0955 15.5453 17.9326 15.8976 17.7955C16.7698 17.4591 17.4591 16.7698 17.7955 15.8976C17.9323 15.5453 18.0952 15.0159 18.1399 14.041C18.188 12.9863 18.1981 12.6701 18.1981 10C18.1981 7.32967 18.188 7.01345 18.1399 5.95902C18.0955 4.98406 17.9326 4.45445 17.7955 4.10209Z" fill="white"/>
<path fill-rule="evenodd" clip-rule="evenodd" d="M4.86474 9.99974C4.86474 12.8359 7.16385 15.1347 10 15.1347C12.8359 15.1347 15.135 12.8359 15.135 9.99974C15.135 7.16358 12.8359 4.86474 10 4.86474C7.16385 4.86474 4.86474 7.16358 4.86474 9.99974ZM13.3333 10C13.3333 11.841 11.841 13.3333 10 13.3333C8.15901 13.3333 6.66667 11.841 6.66667 10C6.66667 8.15901 8.15901 6.66667 10 6.66667C11.841 6.66667 13.3333 8.15901 13.3333 10Z" fill="white"/>
<path d="M14.138 4.66172C14.138 5.32446 14.6753 5.86177 15.338 5.86177C16.0007 5.86177 16.5378 5.32446 16.5381 4.66172C16.5381 3.99899 16.0007 3.46168 15.338 3.46168C14.6753 3.46168 14.138 3.99899 14.138 4.66172Z" fill="white"/>
</svg>
