<svg width="18" height="18" viewBox="0 0 18 18" fill="none" xmlns="http://www.w3.org/2000/svg">
<path d="M4.34789 17.4202H0.857362V6.176H4.34789V17.4202Z" fill="white"/>
<path d="M2.60052 4.64127C2.19881 4.64293 1.80562 4.52545 1.47065 4.3037C1.13569 4.08194 0.873989 3.76586 0.718629 3.3954C0.563268 3.02494 0.521224 2.61674 0.59781 2.22239C0.674396 1.82804 0.866174 1.46525 1.1489 1.17987C1.43163 0.894495 1.79262 0.699343 2.18624 0.619085C2.57986 0.538826 2.98843 0.577064 3.36032 0.728964C3.73221 0.880865 4.05072 1.13961 4.27559 1.47249C4.50046 1.80537 4.62159 2.19745 4.62368 2.59916C4.62481 3.13783 4.41262 3.65503 4.0335 4.0377C3.65438 4.42037 3.13918 4.63737 2.60052 4.64127Z" fill="white"/>
<path d="M17.4216 17.4202H13.9332V11.9465C13.9332 10.6413 13.9079 8.96758 12.1184 8.96758C10.3289 8.96758 10.0132 10.3865 10.0132 11.8518V17.4202H6.53736V6.176H9.88683V7.70864H9.93526C10.4005 6.82443 11.5395 5.89179 13.2384 5.89179C16.771 5.89179 17.4216 8.22022 17.4216 11.2434V17.4202Z" fill="white"/>
</svg>
