<svg width="18" height="18" viewBox="0 0 18 18" fill="none" xmlns="http://www.w3.org/2000/svg">
<path d="M17.2319 15.2874L17.2298 15.2895V15.2842L16.4191 16.0895C15.3706 17.1512 13.8437 17.588 12.3924 17.2415C10.9302 16.8501 9.54021 16.2271 8.27508 15.3962C7.09971 14.645 6.01046 13.7669 5.02708 12.7775C4.12227 11.8793 3.3094 10.8931 2.6004 9.83349C1.8249 8.69337 1.21108 7.45137 0.776396 6.14281C0.278084 4.60556 0.691021 2.91874 1.84308 1.78549L2.7924 0.836181C3.05633 0.571056 3.48521 0.570119 3.75027 0.834056L3.7524 0.836181L6.74971 3.83349C7.01483 4.09743 7.01577 4.52631 6.75183 4.79137L6.74971 4.79349L4.98971 6.55349C4.48471 7.05299 4.42121 7.84674 4.8404 8.42018C5.47696 9.29381 6.1814 10.1159 6.94708 10.8789C7.80077 11.7362 8.72883 12.5162 9.7204 13.2096C10.2933 13.6092 11.0701 13.5418 11.5657 13.0496L13.267 11.3216C13.531 11.0564 13.9598 11.0555 14.2249 11.3194L14.227 11.3216L17.2297 14.3296C17.4949 14.5934 17.4958 15.0222 17.2319 15.2874Z" fill="white"/>
</svg>
