<svg width="18" height="16" viewBox="0 0 18 16" fill="none" xmlns="http://www.w3.org/2000/svg">
<path fill-rule="evenodd" clip-rule="evenodd" d="M1.2425 6.83119C5.90681 4.799 9.01712 3.45925 10.5733 2.812C15.0167 0.963879 15.94 0.642816 16.5418 0.632191C16.6741 0.629879 16.9701 0.662692 17.1618 0.818254C17.4461 1.049 17.4477 1.54988 17.4162 1.88138C17.1754 4.41138 16.1335 10.5509 15.6034 13.3846C15.3791 14.5836 14.9375 14.9856 14.51 15.0249C13.5809 15.1104 12.8753 14.4109 11.9754 13.821C10.5672 12.8979 9.77162 12.3233 8.40469 11.4225C6.825 10.3815 7.84906 9.80938 8.74931 8.87432C8.98494 8.62963 13.0787 4.90594 13.158 4.56813C13.1679 4.52588 13.1771 4.36838 13.0836 4.28525C12.99 4.20213 12.8519 4.2305 12.7523 4.25313C12.6111 4.28519 10.3614 5.77213 6.00344 8.71388C5.36487 9.15238 4.7865 9.366 4.26831 9.35482C3.697 9.3425 2.59812 9.03182 1.78119 8.76625C0.779187 8.44057 -0.0171885 8.26832 0.0521865 7.71519C0.0883115 7.427 0.485061 7.13238 1.2425 6.83119Z" fill="white"/>
</svg>
