<svg width="18" height="20" viewBox="0 0 18 20" fill="none" xmlns="http://www.w3.org/2000/svg">
<path d="M17.0265 8.40803V6.24159L17.0265 5.43778C17.0265 5.43778 17.0231 5.43839 17.0208 5.43844L17.0179 5.43847C15.9735 5.43847 15.0098 5.09247 14.236 4.50878C13.3485 3.83966 12.7108 2.85816 12.4856 1.72684C12.4298 1.44734 12.3998 1.15891 12.397 0.863281H9.41346V9.01578L9.4099 13.4812C9.4099 14.6751 8.63246 15.6873 7.55477 16.0433C7.24202 16.1466 6.90427 16.1956 6.55252 16.1763C6.10358 16.1517 5.6829 16.0162 5.31721 15.7974C4.53908 15.332 4.01152 14.4878 3.99721 13.522C3.97465 12.0125 5.19496 10.7818 6.70333 10.7818C7.00108 10.7818 7.28702 10.8304 7.55477 10.9187V8.69047V7.88947C7.2724 7.84766 6.98502 7.82584 6.6944 7.82584C5.0434 7.82584 3.49927 8.51209 2.39552 9.74847C1.56127 10.6828 1.06083 11.8748 0.983646 13.1248C0.882459 14.7668 1.48333 16.3277 2.64858 17.4794C2.81977 17.6485 2.99958 17.8054 3.18758 17.9502C4.18665 18.719 5.40796 19.1358 6.6944 19.1358C6.98502 19.1358 7.2724 19.1143 7.55477 19.0725C8.75652 18.8945 9.86527 18.3444 10.7403 17.4794C11.8155 16.4167 12.4095 15.0059 12.416 13.5043L12.4006 6.83603C12.9135 7.23172 13.4743 7.55916 14.0763 7.81328C15.0124 8.20822 16.005 8.40841 17.0265 8.40803Z" fill="white"/>
<path fill-rule="evenodd" clip-rule="evenodd" d="M17.0265 5.43778C17.0265 5.43778 17.0231 5.43839 17.0208 5.43844L17.0179 5.43847L17.0265 5.43778Z" fill="white"/>
</svg>
