<svg width="200" height="120" viewBox="0 0 200 120" fill="none" xmlns="http://www.w3.org/2000/svg">
<path fill-rule="evenodd" clip-rule="evenodd" d="M141.2 67.7001C141.6 76.5001 128.9 77.2001 122.2 74.2001L123.2 68.9001C125.2 70.1001 134.2 72.1001 134.2 68.2001C134.2 64.5001 122.7 65.6 122.8 57.8C122.8 49.9 132.1 48.5 138.2 50.3L137.6 55.6C135.8 54.9 129.9 53.9 129.9 57.1C129.9 60.6 141.1 59.1001 141.2 67.7001ZM105.3 65.2001C105.8 71.3001 115.3 70.2001 119.4 68.9001L120.5 74.2001C110.8 77.9001 97.9 75.5001 97.9 63.0001C97.9 46.2001 121.8 44.4 121.8 62.1C121.8 63.4 121.7 64.6001 121.6 65.2001H105.3ZM114.6 59.8C114.6 52.9 105.3 52.8 105.3 59.8H114.6ZM139.4 50.3H142.6V43.3H149.7V64.9001C149.7 69.8001 151.5 69.6001 155.1 68.9001V74.8C154.1 75.2 152.3 75.8 150.1 75.8C143.9 75.8 142.6 71.7 142.6 66.1V55.6H138.9L139.4 50.3ZM150.9 55.6V50.3H155.1L156.6 52.9001L155.1 55.6H150.9ZM57.4 75.3H50.4L44.2 50.3L42.5 75.8H35.6L37.7 43.3H48.6L53.9 65.2001L59.3 43.3H70.2L72.3 75.8H65.3L63.7 50.3L57.4 75.3Z" fill="white" fill-opacity="0.15"/>
<path fill-rule="evenodd" clip-rule="evenodd" d="M80.1 65.2001C80.6 71.3001 90.2001 70.2001 94.3 68.9001L95.3 74.2001C85.7001 77.9001 72.8 75.5001 72.8 63.0001C72.8 46.2001 96.7 44.4 96.7 62.1C96.7 63.4 96.6 64.6001 96.4 65.2001H80.1ZM89.5 59.8001C89.5 52.9001 80.1 52.8001 80.2 59.8001H89.5Z" fill="white" fill-opacity="0.15"/>
<path d="M158.9 43.3L164.2 52.9001L158.9 62.6H153.6L158.9 52.9001L153.6 43.3H158.9Z" fill="white" fill-opacity="0.15"/>
</svg>
