<svg width="200" height="120" viewBox="0 0 200 120" fill="none" xmlns="http://www.w3.org/2000/svg">
<path fill-rule="evenodd" clip-rule="evenodd" d="M110.7 38.0999H118.1V70.5999C118.1 85.8999 109.2 91.6999 99.9 96.0999C96.3 94.3999 94.3 93.0999 92.7 92.0999C104.8 86.1999 110.7 82.5999 110.7 68.5999V38.0999ZM103.7 67.0999C103.7 77.7999 101 80.9999 87.1 87.1999C85.6 85.2999 84.3 83.1999 83.4 80.9999C95.7 75.4999 96.3 74.5999 96.3 65.1999V44.4999H81.7V38.0999H103.7V67.0999ZM84.6 23.3999V29.0999C84.6 30.5999 83.7 31.5999 81.9 31.5999H81.7V30.3999H81.9C82.7 30.3999 83.2 29.9999 83.2 29.0999V24.5999H81.9V23.3999H84.6ZM87.1 30.3999H88.3V23.3999H89.7V30.2999C89.7 31.1999 89.2 31.5999 88.3 31.5999H87.1C86.2 31.5999 85.7 31.0999 85.7 30.2999V23.3999H87.1V30.3999ZM93.4 28.4999V23.4999H94.7V28.4999C94.7 30.7999 93.5 31.5999 91.4 31.5999H90.8V23.3999H92.1V30.1999H92.2C93.1 30.2999 93.4 29.4999 93.4 28.4999ZM97.2 26.8999H98.8L98.5 27.9999H97.2V30.3999H99.2L99 31.5999H95.9V23.3999H98.9L99.1 24.5999H97.2V26.8999ZM102.7 23.3999H104V31.5999H102.7V28.7999L101.4 25.9999H101.3V31.5999H100.1V23.3999H101.3L102.6 26.4999H102.7V23.3999ZM108.7 24.6999H107.4V31.5999H106V24.6999H104.8L105 23.4999H108.5L108.7 24.6999ZM110.7 30.3999H112V23.4999H113.3V30.2999C113.3 31.1999 112.8 31.5999 112 31.5999H110.7C109.8 31.5999 109.3 31.0999 109.3 30.2999V23.4999H110.7V30.3999ZM114.3 28.8999H115.7V30.4999H116.9V29.3999C116.9 28.7999 116.7 28.5999 116.3 28.2999L115 27.4999C114.6 27.0999 114.4 26.5999 114.4 26.1999V24.6999C114.4 23.7999 114.9 23.3999 115.7 23.3999H116.9C117.8 23.3999 118.2 23.8999 118.2 24.6999V25.6999L116.9 26.0999V24.4999H115.8V25.6999C115.8 26.0999 115.9 26.2999 116.3 26.5999L117.5 27.3999C118.1 27.6999 118.3 28.1999 118.3 28.7999V30.3999C118.3 31.2999 117.8 31.5999 117.1 31.5999H115.9C115 31.5999 114.5 31.2999 114.5 30.3999V28.8999H114.3Z" fill="white" fill-opacity="0.15"/>
</svg>
