<svg width="200" height="120" viewBox="0 0 200 120" fill="none" xmlns="http://www.w3.org/2000/svg">
<path fill-rule="evenodd" clip-rule="evenodd" d="M165.6 42.7V76.7999H35V42.7H165.6ZM67.1001 44.4H36.6001V75.0999H67.1001V44.4ZM99.3 44.4H68.8V75.0999H99.3V44.4ZM131.6 44.4H101.1V75.2H131.6V44.4ZM163.8 44.4H133.3V75.0999H163.8V44.4Z" fill="white" fill-opacity="0.15"/>
<path d="M50.3 54.9999H53.5V64.5999H50.3V54.9999Z" fill="white" fill-opacity="0.15"/>
<path d="M82.8 57.2999H79.9V54.9999H88.4V57.2999H85.5V64.5999H82.8V57.2999Z" fill="white" fill-opacity="0.15"/>
<path d="M112.7 54.9999H120.2V57.2H115.1V58.7H120.2V60.7999H115.1V62.2999H120.2V64.5999H112.7V54.9999Z" fill="white" fill-opacity="0.15"/>
<path fill-rule="evenodd" clip-rule="evenodd" d="M147.4 54.9H149.9L154 64.5999H151.1L150.4 62.7999H146.7L146.1 64.5999H143.3L147.4 54.9ZM149.7 60.7L148.6 57.9999L147.5 60.7H149.7Z" fill="white" fill-opacity="0.15"/>
</svg>
