<svg width="200" height="120" viewBox="0 0 200 120" fill="none" xmlns="http://www.w3.org/2000/svg">
<path fill-rule="evenodd" clip-rule="evenodd" d="M175.3 46.2V73.0999H24V46.2H175.3ZM52 58.2H46L41.4 49.9999L36.8 58.2H30.8L35.4 66.2999H47.3L52 58.2ZM95 66.4L87.2 52.9999H81L73.2 66.4H78.8L79.9 64.4H88.1L89.2 66.4H95ZM131.6 62.5999C131.6 61.3999 130.8 60.1999 129.2 59.5999C130.5 58.8999 131.2 57.9 131.2 56.7C131.2 54.5 129.3 52.9999 125.6 52.9999H113.8V66.4H125.9C129.8 66.4 131.6 64.8999 131.6 62.5999ZM73.1 59.2H64V56.5999H74.9V52.9999H58.8V66.4H64V62.7999H73.1V59.2ZM112.4 52.9999H106.5L101.7 61.9L96.9 52.9999H90.9L98.7 66.4H104.6L112.4 52.9999ZM149.5 62.9H139.3V61.2H148.3V58.2999H139.3V56.7H149.3V52.9999H134.1V66.4999H149.5V62.9ZM168.7 53.0999H151.7V56.7H157.5V66.4999H162.8V56.7H168.7V53.0999ZM126.4 62.2999C126.4 62.8999 125.9 63.2999 125.2 63.2999H118.9V61.2999H125.2C125.9 61.2999 126.4 61.6999 126.4 62.2999ZM125.9 57.2999C125.9 57.8999 125.5 58.2999 124.8 58.2999H118.9V56.2999H124.8C125.5 56.2999 125.9 56.6999 125.9 57.2999ZM86.3 60.9999H81.8L84 56.7L86.3 60.9999Z" fill="white" fill-opacity="0.15"/>
</svg>
