<svg width="200" height="120" viewBox="0 0 200 120" fill="none" xmlns="http://www.w3.org/2000/svg">
<path d="M138.1 48.7C138 48.6 137.9 48.5 137.9 48.4V46.7L137.1 47.9C137.1 48 136.9 48.0999 136.7 47.9999C136.7 47.9333 136.667 47.9 136.6 47.9L135.9 46.7V48.4C135.9 48.5 135.8 48.7 135.6 48.7C135.5 48.7 135.4 48.5 135.4 48.4C135.333 48.4 135.333 48.4 135.4 48.4V45.7999C135.4 45.5999 135.5 45.4999 135.6 45.4999C135.6 45.4999 135.633 45.4999 135.7 45.4999C135.8 45.4999 135.9 45.6 136 45.7L136.9 47.2L137.8 45.7C137.9 45.6 138 45.4999 138.1 45.4999C138.3 45.4999 138.4 45.5999 138.4 45.7999V48.4C138.4 48.5 138.3 48.6 138.1 48.7ZM133.9 48.7C133.8 48.7 133.7 48.5 133.7 48.4V46.0999H132.9C132.8 46.0999 132.7 45.9999 132.7 45.7999C132.7 45.6999 132.8 45.4999 132.9 45.4999H134.9C135.1 45.4999 135.2 45.6999 135.2 45.7999C135.2 45.9999 135.1 46.0999 134.9 46.0999H134.2V48.4C134.2 48.5 134.1 48.6 133.9 48.7Z" fill="white" fill-opacity="0.15"/>
<path fill-rule="evenodd" clip-rule="evenodd" d="M123.4 80.4C114.6 80.4 107.5 73.2999 107.5 64.4999C107.5 55.6999 114.6 48.5999 123.4 48.5999C132.2 48.5999 139.3 55.6999 139.3 64.4999C139.3 73.2999 132.2 80.4 123.4 80.4ZM123.4 52.7C116.9 52.7 111.6 57.9999 111.6 64.4999C111.6 70.9999 116.9 76.2999 123.4 76.2999C129.9 76.2999 135.2 70.9999 135.2 64.4999C135.2 57.9999 129.9 52.7 123.4 52.7Z" fill="white" fill-opacity="0.15"/>
<path d="M102.4 77.2V29.4C102.4 28.1 101.4 27.2 100.2 27.2C99 27.2 98 28.1 98 29.4V77.2C98 78.4 99 79.4 100.2 79.4C101.4 79.4 102.4 78.4 102.4 77.2Z" fill="white" fill-opacity="0.15"/>
<path fill-rule="evenodd" clip-rule="evenodd" d="M91.9 77.2999C91.9 85.9999 84.8 93.0999 76 93.0999C75.9333 93.1666 75.8333 93.1666 75.7 93.0999C74.6 93.0999 73.6999 92.1 73.7999 90.9C73.8999 89.8 74.9 88.9999 76 89.0999C82.5 89.0999 87.7999 83.7999 87.7999 77.2999V75.0999C84.7999 78.4999 80.5 80.4 75.9 80.4C67.1 80.4 60 73.2 60 64.4C60 55.6 67.2 48.4999 76 48.4999C84.8 48.5999 91.9 55.6999 91.9 64.4999V77.2999ZM76 76.4C82.5 76.4 87.7999 71.0999 87.7999 64.5999C87.7999 58.0999 82.5 52.7999 76 52.7999C69.5 52.7999 64.2 58.0999 64.2 64.5999C64.2 71.0999 69.5 76.4 76 76.4Z" fill="white" fill-opacity="0.15"/>
</svg>
