<svg width="200" height="120" viewBox="0 0 200 120" fill="none" xmlns="http://www.w3.org/2000/svg">
<path fill-rule="evenodd" clip-rule="evenodd" d="M114.7 52.3C117.3 52.3 119.5 53.3001 121.3 55.4001C123.033 57.4668 123.9 60.0667 123.9 63.2001C123.9 67.2001 122.7 70.4001 120.4 72.7001C118.1 75.1001 114.9 76.2001 110.9 76.2001C108.7 76.2001 105.8 75.9 102.1 75.1C102.3 73.4 102.3 69 102.3 62.1C102.4 55.1 102.3 50.7001 102.1 48.7001C102 47.7001 101.8 47 101.5 46.6C101.3 46.1 100.8 45.9 100.1 45.8L99 45.7001V44.7001L109.3 42.8C109.1 46.1 109.1 49.8001 109.1 53.7001C111.1 52.7001 112.9 52.3 114.7 52.3ZM111 74.7001C112.6 74.7001 114 73.6001 115.1 71.5001C116.1 69.4001 116.7 66.8 116.7 63.6C116.7 61.1 116.2 59.1001 115.3 57.4001C114.3 55.7001 113 54.9001 111.4 54.9001C110.4 54.9001 109.6 55.0001 109 55.2001C109 65.8001 109.1 72.3001 109.3 74.4001C109.9 74.5001 110.4 74.5001 111 74.7001ZM60.7 52.5001L59.1 52.9001C57.6 48.1001 55 45.7001 51.3 45.7001H46C45.8 48.3001 45.6 52.6001 45.6 58.7001L49.3 58.6C51.3 58.5 52.5 57.0001 53.2 54.2001H54.6V65.1H53.2C52.5 62.2 51.2 60.7 49.3 60.6L45.6 60.5001C45.6 64.0001 45.8 67.1 46 69.8C46.0667 71.2667 46.3334 72.3334 46.8 73.0001C47.3 73.7001 48.2 74.1001 49 74.2001L50.9 74.3V75.7001H33.5V74.3L34.9 74.1C36 74 36.7 73.6001 37.2 72.9001C37.6 72.2334 37.8667 71.1667 38 69.7001C38.6 63.4001 38.6 56.6001 38 49.4001C37.9333 47.9334 37.6666 46.8334 37.2 46.1C36.7 45.5 36 45.1001 34.9 44.9001L33.5 44.8V43.5001H60.4L60.7 52.5001ZM60.5 55.5001C62.6 53.1001 65.6 52.0001 69.2 52.0001C72.7999 52.0001 75.7 53.1 77.7 55.3C79.6 57.6 80.6 60.5001 80.6 64.0001C80.6 67.5001 79.6 70.4001 77.5 72.7001C75.3 75.1001 72.4 76.2001 68.7 76.2001C65.1 76.2001 62.2 75.1 60.3 72.8C58.3 70.6 57.3 67.7001 57.3 64.2001C57.3 60.7001 58.3 57.8001 60.5 55.5001ZM68.9 53.5001C66 53.5001 64.5 57 64.5 64.1C64.5 67.1 64.8 69.7001 65.6 71.7001C66.4 73.7001 67.5666 74.7001 69.1 74.7001C72 74.7001 73.4 71.2 73.4 64.1C73.4 61 73.1 58.4001 72.3 56.5001C71.5 54.5001 70.3 53.5001 68.9 53.5001ZM129.2 72.8C126.9 70.6 125.9 67.8 125.9 64.3C125.9 60.9 126.9 58 129 55.6C131 53.3 133.9 52.1 137.7 52.1C140.7 52.1 143.067 53.1 144.8 55.1C146.5 57.2 147.3 59.8001 147.3 63.0001H132.9C132.7 66.0001 133.4 68.3 134.9 70.1C136.3 71.9 138.4 72.8 141.1 72.8C143 72.8 144.7 72.2 146.2 71.1L146.9 71.9001C146 73.1001 144.7 74.1001 143.1 74.9001C141.5 75.8001 139.7 76.2001 137.6 76.2001C134.2 76.2001 131.4 75.1 129.2 72.8ZM134.1 56.0001C133.4 57.6001 133.1 59.4001 133 61.4001L140.1 61.3C140.1 56.1 139.1 53.5001 137.1 53.5001C135.8 53.5001 134.9 54.3001 134.1 56.0001ZM165.6 59.0001L164.5 59.4001C163.3 55.6001 161.3 53.6 158.6 53.6C157.7 53.6 157 53.9001 156.3 54.5001C155.7 55.2001 155.5 56.0001 155.5 57.0001C155.5 58.0001 155.9 58.8001 156.7 59.5001C157.5 60.2001 159 60.9001 161.3 61.7001C163.3 62.5001 164.7 63.4001 165.6 64.4001C166.4 65.4001 166.8 66.8001 166.8 68.4001C166.8 70.8001 166 72.8 164.2 74.1C162.5 75.5 160.1 76.2001 157 76.2001C154.067 76.2001 151.367 75.7334 148.9 74.8L148.7 68.1L149.8 67.7001C151.4 72.0001 153.6 74.2001 156.5 74.2001C157.8 74.2001 158.7 73.9 159.4 73.1C160.1 72.4 160.5 71.6 160.5 70.6C160.5 69.6 160 68.9001 159.4 68.2001C158.7 67.6001 157.4 66.9001 155.5 66.2001C153.4 65.5001 151.8 64.6 150.8 63.6C149.8 62.6 149.2 61.2001 149.2 59.4001C149.2 57.3001 150.1 55.6 151.8 54.1C153.5 52.7 155.7 52.0001 158.5 52.0001C161.3 52.0001 163.5 52.5 165.4 53.3L165.6 59.0001ZM98.1 58.8C96.5 57.9 94.9 57.5 93.6 57.6C92.2 57.7334 91.3 58.1334 90.9 58.8C90.6 63.1 90.7 67.3001 91.1 71.2001C91.2 73.0001 91.9 74.0001 93.2 74.2001L95 74.3V75.6H80.8V74.3L81.8 74.2001C83.1 74.0001 83.8 73.0001 83.9 71.2001C84.3 66.4667 84.3 62.0334 83.9 57.9001C83.8 56.1001 83.1 55.1001 81.8 54.9001H80.8V53.9001L91 51.9001L90.9 57.3C91.7 55.5 92.6 54.3 93.9 53.3C95.2 52.4 96.3 51.9001 97.5 51.9001C98.6 51.9001 99.6 52.1 100.6 52.6L98.1 58.8Z" fill="white" fill-opacity="0.15"/>
</svg>
