<svg width="157" height="120" viewBox="0 0 157 120" fill="none" xmlns="http://www.w3.org/2000/svg">
<path fill-rule="evenodd" clip-rule="evenodd" d="M40.8 43.3V75.8H29.2V62.6H23.9V75.8H12.5V43.3H23.9V55.1H29.2V43.3H40.8ZM54.5 57.5001V75.8H43.6V57.5001H54.5ZM89.9 63.1V75.8H78.3V60.6C76.4 62.1 73.6 63.1 69.9 63.1V75.8H58.3V43.3H71.4C74.1 43.3 76.5 44.2 78.3 45.6V43.3H91.4C97.1 43.3 101.3 46.9 101.9 52.1C102.4 57.4 98.9 63.2 89.9 63.1ZM73.9 49.7001C72.5 48.7001 70.6 49.1 69.9 50.3C69 49.1 67.2 48.7001 65.8 49.7001C64.4 50.7001 64.4 53.3 66.3 54.1C68 54.9 69.2 55.6001 69.9 56.5001C70.5 55.6001 71.7 54.9 73.5 54.1C75.2 53.3 75.3 50.7001 73.9 49.7001ZM93.9 49.7001C92.5 48.7001 90.7 49.1 89.9 50.3C89.1 49.1 87.2 48.7001 85.8 49.7001C84.4 50.7001 84.5 53.3 86.3 54.1C88 54.9 89.2 55.6001 89.9 56.5001C90.6 55.6001 91.8 54.9 93.5 54.1C95.3 53.3 95.4 50.7001 93.9 49.7001ZM53.1 54.1C51.1 55.1 49.8 55.8 49.2 56.8C48.4 55.8 47.2 55.1 45.3 54.1C43.4 53.3 43.3 50.6001 44.8 49.5001C46.3 48.4001 48.3 48.9001 49.2 50.2001C50 48.9001 52 48.4001 53.4 49.5001C54.9 50.6001 54.9 53.3 53.1 54.1Z" fill="white" fill-opacity="0.15"/>
</svg>
